<?xml version="1.0" standalone="no"?>
<!DOCTYPE svg PUBLIC "-//W3C//DTD SVG 20010904//EN"
 "http://www.w3.org/TR/2001/REC-SVG-20010904/DTD/svg10.dtd">
<svg version="1.0" xmlns="http://www.w3.org/2000/svg"
 width="256.000000pt" height="256.000000pt" viewBox="0 0 256.000000 256.000000"
 preserveAspectRatio="xMidYMid meet">
<metadata>
Created by potrace 1.14, written by Peter Selinger 2001-2017
</metadata>
<g transform="translate(0.000000,256.000000) scale(0.100000,-0.100000)"
fill="#000000" stroke="none">
<path d="M1659 2543 c0 -10 -1 -292 -1 -627 -1 -482 -4 -606 -13 -592 -7 9
-20 26 -29 39 -9 12 -20 27 -24 32 -13 18 -118 95 -130 95 -7 0 -12 5 -12 11
0 5 -4 8 -9 4 -5 -3 -12 -1 -15 4 -8 13 -113 45 -151 46 -16 0 -35 4 -41 7 -6
4 -29 5 -50 3 -21 -3 -52 -6 -69 -8 -16 -2 -37 -6 -45 -9 -56 -19 -87 -30
-102 -33 -25 -5 -126 -82 -175 -132 -23 -24 -40 -43 -37 -43 3 0 -6 -14 -20
-31 -14 -17 -24 -35 -20 -40 3 -5 0 -9 -6 -9 -6 0 -8 -4 -5 -10 3 -5 2 -10 -3
-10 -8 0 -18 -20 -27 -55 -1 -5 -3 -12 -4 -15 -19 -39 -19 -261 0 -300 1 -3 3
-9 4 -15 1 -5 8 -23 15 -40 7 -16 13 -33 12 -37 -1 -5 3 -8 9 -8 5 0 7 -4 4
-10 -3 -5 -2 -10 3 -10 5 0 15 -13 22 -29 6 -16 18 -32 26 -35 8 -3 14 -10 14
-16 0 -11 56 -70 66 -70 4 0 23 -13 43 -28 31 -24 80 -51 104 -58 4 -1 8 -2
10 -4 1 -1 9 -3 17 -5 8 -2 33 -9 55 -15 52 -15 196 -18 214 -5 8 5 16 9 18 7
18 -16 201 71 237 113 12 14 27 25 34 25 7 0 12 4 12 10 0 5 11 20 25 34 14
14 25 30 25 36 0 5 4 10 9 10 10 0 63 123 76 175 15 61 17 111 19 610 2 499 2
510 21 507 29 -4 39 -7 53 -15 6 -5 17 -5 22 -2 6 3 10 2 10 -4 0 -8 28 -22
50 -26 3 0 39 -14 80 -30 41 -16 77 -30 80 -31 3 0 18 -6 33 -12 15 -7 39 -15
52 -18 14 -3 25 -9 25 -13 0 -4 21 -13 48 -20 26 -8 53 -18 60 -24 6 -5 12 -7
12 -4 0 3 12 0 27 -8 16 -8 31 -11 37 -5 7 5 11 91 10 245 l-1 237 -24 18
c-13 10 -26 17 -28 14 -2 -2 -9 0 -15 4 -9 7 -98 43 -116 48 -6 1 -59 22 -80
31 -8 4 -19 7 -25 8 -5 0 -20 6 -32 13 -12 7 -29 12 -37 12 -9 0 -16 4 -16 8
0 5 -7 9 -15 10 -8 1 -22 3 -30 4 -8 1 -15 5 -15 9 0 5 -16 11 -35 15 -19 3
-33 9 -31 13 3 4 -3 7 -12 8 -10 1 -52 15 -95 32 -90 36 -97 37 -98 14z"/>
<path d="M1080 2024 c-47 -7 -96 -15 -110 -19 -14 -4 -35 -7 -47 -8 -13 -1
-23 -4 -23 -8 0 -5 -30 -14 -68 -20 -4 0 -13 -5 -19 -11 -7 -6 -13 -7 -13 -4
0 4 -7 0 -16 -8 -8 -9 -22 -16 -30 -16 -8 0 -14 -4 -14 -8 0 -4 -9 -8 -20 -9
-11 -1 -27 -8 -35 -15 -32 -29 -45 -38 -53 -38 -5 0 -27 -16 -49 -35 -23 -19
-44 -35 -47 -35 -22 0 -206 -223 -206 -249 0 -6 -4 -11 -9 -11 -5 0 -14 -15
-21 -32 -8 -18 -20 -41 -28 -50 -8 -9 -11 -21 -8 -27 4 -5 2 -12 -4 -16 -6 -4
-8 -11 -5 -16 4 -5 2 -9 -4 -9 -5 0 -13 -15 -17 -32 -4 -18 -9 -36 -10 -40 -1
-5 -3 -9 -4 -10 -1 -2 -4 -12 -6 -23 -2 -11 -8 -42 -15 -69 -14 -59 -9 -403 6
-414 6 -4 11 -18 13 -32 4 -41 8 -54 20 -77 7 -12 12 -29 12 -37 0 -9 5 -16
11 -16 5 0 7 -4 4 -10 -3 -5 -1 -10 4 -10 6 0 10 -3 9 -7 -5 -19 84 -172 105
-181 4 -2 7 -9 7 -15 0 -11 163 -174 201 -202 49 -36 114 -75 126 -75 7 0 13
-4 13 -10 0 -5 7 -10 15 -10 16 0 56 -20 66 -32 3 -5 17 -9 32 -10 15 -1 27
-6 27 -10 0 -4 11 -8 23 -8 13 0 27 -3 31 -7 3 -4 16 -8 29 -10 53 -8 72 -11
72 -13 0 -3 137 -12 175 -12 37 1 155 9 155 11 0 2 9 4 20 6 75 14 136 29 141
36 2 4 11 6 19 2 8 -3 15 0 15 6 0 7 6 11 13 10 19 -2 57 12 57 22 0 5 3 8 8
7 13 -2 80 31 84 42 2 6 13 12 26 13 12 0 25 9 28 19 3 10 9 17 13 15 5 -1 23
10 40 26 17 15 31 25 31 23 0 -2 25 20 55 49 30 29 55 56 55 60 0 4 12 20 28
34 15 15 34 40 42 56 8 17 21 34 27 38 7 4 13 14 13 22 0 7 7 21 16 29 8 9 13
16 10 16 -3 0 8 25 24 57 16 31 27 60 24 65 -3 4 0 8 6 8 7 0 10 7 7 15 -4 8
-2 17 2 19 8 5 14 27 27 91 3 11 6 34 7 52 1 17 5 35 10 39 9 9 9 228 0 238
-4 4 -8 24 -8 44 0 20 -3 42 -7 47 -3 6 -4 18 -3 28 2 9 0 17 -5 17 -4 0 -10
18 -14 39 -3 22 -12 52 -20 68 -7 15 -28 58 -45 96 -17 37 -36 67 -42 67 -6 0
-9 5 -7 12 2 6 -3 19 -11 28 -9 9 -23 28 -31 41 -24 38 -173 189 -187 189 -7
0 -13 5 -13 11 0 5 -3 8 -7 6 -10 -6 -8 -290 1 -306 4 -6 4 -11 -1 -11 -4 0
-8 -49 -8 -110 0 -60 4 -110 8 -110 4 0 2 -10 -4 -22 -7 -13 -11 -25 -9 -28
10 -19 18 -50 12 -50 -4 0 -7 -49 -7 -110 0 -67 4 -110 10 -110 6 0 4 -4 -3
-8 -7 -5 -14 -24 -16 -43 -5 -44 -25 -121 -37 -135 -5 -6 -6 -14 -2 -17 3 -4
1 -7 -5 -7 -7 0 -11 -3 -10 -7 4 -11 -44 -93 -54 -93 -4 0 -8 -5 -8 -11 0 -27
-174 -169 -207 -169 -7 0 -13 -4 -13 -9 0 -5 -18 -12 -40 -16 -22 -4 -42 -11
-45 -15 -3 -5 -12 -7 -19 -4 -8 3 -16 2 -19 -3 -3 -4 -61 -7 -129 -5 -143 2
-174 5 -184 15 -4 4 -15 7 -25 7 -10 0 -25 7 -33 16 -9 8 -16 12 -16 8 0 -3
-6 -1 -13 5 -8 6 -17 8 -20 4 -4 -3 -7 -1 -7 5 0 7 -7 12 -15 12 -9 0 -18 7
-21 15 -4 8 -12 15 -18 15 -7 0 -44 33 -83 73 -77 79 -133 177 -152 264 -13
61 -16 256 -5 274 4 7 9 22 10 33 3 26 8 43 22 79 7 16 12 33 12 38 0 5 4 9
10 9 5 0 9 3 8 8 -3 8 28 56 57 88 11 13 31 36 45 53 14 16 30 30 37 30 7 1
16 7 20 15 9 14 84 64 95 62 4 -1 16 7 27 16 11 9 22 14 24 11 3 -3 12 -1 19
3 52 33 280 38 388 9 14 -4 31 -7 38 -7 6 -1 12 -5 12 -10 0 -4 6 -8 13 -8 7
0 36 -15 65 -34 28 -19 52 -32 52 -29 0 4 6 -2 14 -13 8 -10 18 -16 22 -12 4
5 8 107 8 228 1 165 -2 224 -12 237 -7 10 -16 17 -20 16 -4 0 -23 6 -42 14
-19 8 -45 15 -57 15 -13 0 -23 4 -23 9 0 5 -13 7 -30 5 -16 -2 -30 0 -30 4 0
7 -106 21 -185 24 -22 0 -79 -4 -125 -10z"/>
</g>
</svg>
